<svg width="1451" height="1100" viewBox="0 0 1451 1100" fill="none" xmlns="http://www.w3.org/2000/svg">
<path d="M1326.36 307.796C1360.31 392.159 1324.18 495.717 1237.75 595.076C1151.36 694.389 1014.9 789.257 848.835 856.082C682.771 922.907 518.636 949 387.534 937.207C256.372 925.409 158.584 875.739 124.636 791.377C90.6884 707.015 126.817 603.457 213.249 504.098C299.641 404.784 436.1 309.916 602.165 243.091C768.23 176.266 932.365 150.173 1063.47 161.966C1194.63 173.764 1292.42 223.434 1326.36 307.796Z" stroke="#FD3789" stroke-width="2"/>
<path d="M208.043 867.631C207.408 866.469 205.635 867.119 205.902 868.416L209.387 885.357C209.489 885.853 209.255 886.358 208.811 886.6L193.632 894.89C192.47 895.525 193.12 897.298 194.417 897.031L211.357 893.546C211.853 893.444 212.358 893.678 212.601 894.122L220.891 909.301C221.526 910.463 223.298 909.814 223.032 908.517L219.546 891.576C219.444 891.08 219.678 890.575 220.123 890.332L235.302 882.042C236.464 881.408 235.814 879.635 234.517 879.902L217.577 883.387C217.08 883.489 216.576 883.255 216.333 882.81L208.043 867.631Z" fill="#FFB24E"/>
<path d="M1125.83 145.767C1126.23 144.283 1124.23 143.395 1123.4 144.695L1112.64 161.674C1112.32 162.171 1111.72 162.404 1111.15 162.248L1091.77 156.925C1090.28 156.518 1089.39 158.525 1090.69 159.349L1107.67 170.112C1108.17 170.427 1108.4 171.03 1108.25 171.598L1102.93 190.984C1102.52 192.468 1104.53 193.356 1105.35 192.056L1116.11 175.077C1116.43 174.579 1117.03 174.346 1117.6 174.502L1136.98 179.825C1138.47 180.233 1139.36 178.225 1138.06 177.401L1121.08 166.639C1120.58 166.323 1120.35 165.72 1120.5 165.152L1125.83 145.767Z" fill="#FFB24E"/>
</svg>
