<svg width="1249" height="1162" viewBox="0 0 1249 1162" fill="none" xmlns="http://www.w3.org/2000/svg">
<path d="M1239.24 598.679C1183.52 736.203 865.61 737.176 529.173 600.852C192.736 464.529 -34.8264 242.532 20.8979 105.008C76.6221 -32.5154 394.532 -33.4884 730.969 102.835C1067.41 239.159 1294.97 461.156 1239.24 598.679Z" stroke="#FD3789" stroke-width="2"/>
<path d="M1228.24 818.679C1172.52 956.203 854.61 957.176 518.173 820.852C181.736 684.529 -45.8264 462.532 9.89787 325.008C65.6221 187.485 383.532 186.512 719.969 322.835C1056.41 459.159 1283.97 681.156 1228.24 818.679Z" stroke="#FD3789" stroke-width="2"/>
<path d="M1228.24 1056.68C1172.52 1194.2 854.61 1195.18 518.173 1058.85C181.736 922.529 -45.8264 700.532 9.89787 563.008C65.6221 425.485 383.532 424.512 719.969 560.835C1056.41 697.159 1283.97 919.156 1228.24 1056.68Z" stroke="#FD3789" stroke-width="2"/>
</svg>
