<svg width="71" height="71" viewBox="0 0 71 71" fill="none" xmlns="http://www.w3.org/2000/svg">
<path d="M37.2373 2.31529C36.9387 0.319376 34.0608 0.319386 33.7623 2.3153L29.8625 28.3849C29.7483 29.1487 29.1487 29.7483 28.3849 29.8625L2.31529 33.7623C0.319376 34.0608 0.319386 36.9387 2.3153 37.2373L28.3849 41.1371C29.1487 41.2513 29.7483 41.8509 29.8625 42.6147L33.7623 68.6843C34.0608 70.6802 36.9387 70.6802 37.2373 68.6843L41.1371 42.6147C41.2513 41.8509 41.8509 41.2513 42.6147 41.1371L68.6843 37.2373C70.6802 36.9387 70.6802 34.0608 68.6843 33.7623L42.6147 29.8625C41.8509 29.7483 41.2513 29.1487 41.1371 28.3849L37.2373 2.31529Z" fill="#FFB24E"/>
</svg>
